<svg version="1.1" id="Layer_1" xmlns="http://www.w3.org/2000/svg" xmlns:xlink="http://www.w3.org/1999/xlink" x="0px" y="0px"
	 width="100%" viewBox="0 0 500 500" enable-background="new 0 0 500 500" xml:space="preserve">
<path fill="#000000" opacity="1.000000" stroke="none" 
	d="
M270.000000,501.000000 
	C181.333359,501.000000 93.166672,500.974548 5.000195,501.095856 
	C1.576088,501.100555 0.903036,500.423828 0.905301,497.000000 
	C1.013778,333.000092 1.013756,169.000122 0.905337,5.000245 
	C0.903074,1.576940 1.575800,0.903021 4.999878,0.905286 
	C168.999756,1.013775 332.999725,1.013761 496.999634,0.905353 
	C500.422668,0.903090 501.096985,1.575432 501.094727,4.999759 
	C500.986206,168.999634 500.986237,332.999603 501.094604,496.999512 
	C501.096893,500.422272 500.425598,501.101959 497.000275,501.096252 
	C421.500336,500.970245 346.000153,501.000000 270.000000,501.000000 
z"/>
<path fill="#F3F1EC" opacity="1.000000" stroke="none" 
	d="
M340.812103,442.060425 
	C340.812103,440.903534 340.906036,440.221039 340.796844,439.572754 
	C340.084808,435.345154 341.468292,433.963318 346.066040,434.027649 
	C367.061798,434.321381 388.065308,434.036865 409.062805,434.260071 
	C413.146820,434.303467 414.264557,433.406311 414.251190,429.166351 
	C414.085175,376.500488 414.196228,323.833771 414.039886,271.167847 
	C414.027496,266.996033 415.231873,265.142670 419.194366,263.754608 
	C429.845978,260.023407 440.302490,255.735382 451.913971,251.252441 
	C446.542419,249.199509 441.990417,247.471756 437.447357,245.720703 
	C430.938599,243.211975 424.530273,240.389816 417.893463,238.287399 
	C414.346771,237.163879 414.009308,235.206360 414.013702,232.098099 
	C414.088074,179.431824 414.004120,126.765198 414.176575,74.099380 
	C414.191711,69.476395 413.382324,67.956764 408.354431,68.036446 
	C387.359833,68.369202 366.355896,68.074036 345.357910,68.272224 
	C341.625763,68.307449 340.501007,67.416100 340.719788,63.641251 
	C341.066437,57.661377 340.938354,51.642803 340.754608,45.648472 
	C340.672791,42.978783 341.171265,41.910828 344.203400,41.922165 
	C375.369446,42.038670 406.536591,42.076096 437.702118,41.900631 
	C442.137848,41.875664 440.949097,44.559776 440.950317,46.769318 
	C440.980835,102.102341 441.046417,157.435638 440.847626,212.767960 
	C440.830322,217.580246 442.322266,219.535904 446.757904,221.126495 
	C461.292633,226.338516 475.598755,232.184631 490.069794,237.580368 
	C492.911072,238.639771 493.933350,239.704056 492.317291,242.518860 
	C489.036133,248.233780 488.806732,254.091660 492.045807,259.882904 
	C493.876129,263.155304 492.011597,264.032501 489.396240,265.032898 
	C474.660553,270.669342 460.018921,276.556213 445.223572,282.028809 
	C441.434967,283.430145 440.411560,285.341370 440.421722,289.269470 
	C440.564056,344.268799 440.459137,399.268829 440.622528,454.268036 
	C440.636688,459.034607 439.884125,460.729492 434.526703,460.670624 
	C405.363739,460.350159 376.194550,460.408752 347.029694,460.627777 
	C342.258972,460.663635 339.990997,459.914734 340.709412,454.535583 
	C341.234192,450.606110 340.812103,446.550201 340.812103,442.060425 
z"/>
<path fill="#F5F3EE" opacity="1.000000" stroke="none" 
	d="
M61.052319,416.000000 
	C61.052319,373.502563 60.967182,331.504700 61.176563,289.508301 
	C61.198891,285.029999 59.727219,283.298340 55.706821,281.818695 
	C41.215401,276.485352 26.922459,270.614990 12.475572,265.156494 
	C9.413606,263.999603 7.881521,262.898224 9.766940,259.573608 
	C12.994056,253.883118 12.599858,248.200134 9.338261,242.655350 
	C7.576006,239.659470 8.880890,238.555588 11.768423,237.475983 
	C26.701180,231.892914 41.512623,225.983978 56.467484,220.462540 
	C59.786480,219.237137 60.910095,217.713135 60.906769,214.119583 
	C60.855274,158.456467 61.014977,102.793182 60.954315,47.130116 
	C60.949974,43.151226 61.636799,41.848099 65.979340,41.880260 
	C95.975868,42.102444 125.975555,42.099739 155.972168,41.882591 
	C160.285324,41.851364 161.275925,43.086578 161.015015,47.127506 
	C160.650681,52.770306 160.723892,58.463924 160.999084,64.116844 
	C161.160034,67.423073 160.126602,68.269035 156.862183,68.246666 
	C135.531158,68.100494 114.197159,68.302895 92.867836,68.062660 
	C88.508789,68.013557 87.324013,69.027328 87.339043,73.512604 
	C87.513924,125.675507 87.376099,177.839493 87.570709,230.002258 
	C87.589455,235.025238 86.476288,237.565979 81.379929,239.235733 
	C71.002449,242.635834 60.917370,246.928375 49.674618,251.252075 
	C61.343704,255.747269 71.960327,260.035675 82.736534,263.876251 
	C86.314079,265.151276 87.395142,266.849152 87.385185,270.626190 
	C87.246399,323.289276 87.359245,375.953125 87.173813,428.615906 
	C87.157333,433.296600 88.469170,434.316589 92.934250,434.266907 
	C114.097008,434.031281 135.264374,434.236938 156.428665,434.085388 
	C159.843506,434.060944 161.106903,434.832458 160.928543,438.453918 
	C160.625580,444.605286 160.759705,450.784149 160.888199,456.947784 
	C160.938187,459.346039 160.531372,460.567688 157.694656,460.560272 
	C126.530106,460.478668 95.365082,460.461090 64.200760,460.578003 
	C60.781467,460.590820 61.024403,458.779022 61.031631,456.497131 
	C61.073875,443.164856 61.052330,429.832397 61.052319,416.000000 
z"/>
<path fill="#F5F3EE" opacity="1.000000" stroke="none" 
	d="
M326.137146,312.819763 
	C329.935822,324.205200 334.152344,335.032959 337.323792,346.223480 
	C338.587952,350.684052 337.506775,354.523346 335.026154,358.000916 
	C331.287201,363.242523 326.390656,367.228210 320.384979,369.668030 
	C313.775421,372.353119 309.868713,370.953888 307.200867,364.329224 
	C304.352905,357.257324 302.061737,349.959015 299.590393,342.737976 
	C278.951233,282.433289 258.318024,222.126526 237.703522,161.813400 
	C232.566772,146.784485 241.378586,132.075378 257.091095,129.170837 
	C261.917023,128.278732 263.672577,131.244537 264.961426,134.929062 
	C268.906616,146.207474 272.841187,157.489792 276.723022,168.790115 
	C293.170593,216.670303 309.597595,264.557526 326.137146,312.819763 
z"/>
<path fill="#F5F3EE" opacity="1.000000" stroke="none" 
	d="
M197.301102,262.347900 
	C205.651459,237.425232 213.811935,212.856247 222.108612,188.333344 
	C223.337433,184.701263 223.788834,179.425949 228.486206,179.174377 
	C233.594162,178.900787 234.370010,184.366257 235.871002,188.033356 
	C241.772507,202.451508 243.953217,216.848312 237.306015,231.963058 
	C233.251801,241.181778 230.845139,251.129105 227.762589,260.769684 
	C225.650574,267.374969 227.055649,269.344971 233.852524,269.482849 
	C241.839218,269.644867 249.826355,269.789459 257.813751,269.911469 
	C260.239868,269.948547 262.596313,270.396149 264.033569,272.452026 
	C268.185486,278.390961 269.629608,285.218567 269.396362,292.288177 
	C269.261383,296.379791 265.819580,296.987640 262.440002,296.990692 
	C249.621658,297.002289 236.803314,297.001434 223.984970,297.003143 
	C214.329559,297.004425 204.673584,297.066742 195.018967,296.978638 
	C188.952362,296.923309 186.955338,294.171356 188.799911,288.265869 
	C191.471115,279.713837 194.359543,271.229675 197.301102,262.347900 
z"/>
<path fill="#F4F2ED" opacity="1.000000" stroke="none" 
	d="
M200.760376,346.686981 
	C195.819946,359.061371 187.675323,367.394135 174.735565,370.312988 
	C172.656799,370.781891 170.416397,371.049469 168.318771,370.811157 
	C164.083542,370.330078 162.059326,367.388885 163.435547,363.374298 
	C169.081375,346.904785 174.908539,330.497314 180.709778,314.081421 
	C181.494644,311.860504 182.599518,309.645691 184.963760,308.810638 
	C192.716873,306.072235 200.671036,306.016510 208.431259,308.410980 
	C212.509354,309.669342 211.529053,313.588562 210.649124,316.553223 
	C208.480072,323.861206 205.961899,331.065643 203.576981,338.309387 
	C202.695709,340.986084 201.794525,343.656250 200.760376,346.686981 
z"/>
</svg>